<?xml version="1.0" encoding="utf-8"?><!-- Generator: Adobe Illustrator 15.1.0, SVG Export Plug-In . SVG Version: 6.00 Build 0)  -->
<!DOCTYPE svg PUBLIC "-//W3C//DTD SVG 1.0//EN">
<svg id="Layer_2"
    xmlns="http://www.w3.org/2000/svg"
    x="0px"
    y="0px"
    width="1024px"
    height="1023.999px"
    viewBox="0 0 1024 1023.999"
    enable-background="new 0 0 1024 1023.999"
    xml:space="preserve">
<rect
    fill="#FFFFFF"
    width="1024"
    height="1024" />
    <g>
	<path d="M595.301,166.067c13.441-44.306-55.484-75.482-55.484-75.482s122.891-7.817,114.771,95.54
		c-3.656,46.531-50.669,70.585-73.711,61.163C557.836,237.865,587.937,190.344,595.301,166.067z" />
        <path d="M421.447,166.067c-13.441-44.306,55.484-75.482,55.484-75.482s-122.89-7.817-114.771,95.54
		c3.655,46.531,50.669,70.585,73.71,61.163C458.911,237.865,428.813,190.344,421.447,166.067z" />
        <ellipse
            fill="#AD6A6C"
            cx="515.628"
            cy="773.776"
            rx="231.679"
            ry="159.772" />
        <g>
		<ellipse
            cx="437.838"
            cy="498.896"
            rx="35.808"
            ry="54.93" />
            <ellipse
                cx="601.229"
                cy="498.896"
                rx="35.809"
                ry="54.93" />
	</g>
        <path
            fill="#D0ADA7"
            d="M775.127,276.481c19.662-36.766-8.368-90.083-8.368-90.083s-59.906,6.293-79.567,43.06
		c-19.66,36.767-15.913,77.1,8.369,90.084S755.467,313.249,775.127,276.481z" />
        <path
            fill="#D0ADA7"
            d="M248.873,276.481c-19.662-36.766,8.369-90.083,8.369-90.083s59.906,6.293,79.567,43.06
		c19.66,36.767,15.913,77.1-8.37,90.084C304.158,332.527,268.532,313.249,248.873,276.481z" />
        <ellipse
            fill="#FFFFFF"
            cx="422.274"
            cy="773.809"
            rx="41.858"
            ry="32.941" />
        <ellipse
            fill="#FFFFFF"
            cx="603.695"
            cy="773.809"
            rx="41.858"
            ry="32.941" />
        <path
            fill="none"
            stroke="#FFFFFF"
            stroke-width="8"
            stroke-linecap="round"
            stroke-miterlimit="10"
            d="M407.732,852.782
		c67.182,34.283,139.672,36.162,208.535,0" />
</g>
</svg>
